# xmcd CD database file
#
# Track frame offsets:
#	150
#	18783
#	38980
#	57405
#	74720
#	93568
#	110868
#	131325
#	152368
#	170358
#	192350
#
# Disc length: 2872 seconds
#
# Revision: 0
# Processed by: cddbd v1.5PL3 Copyright (c) Steve Scherf et al.
# Submitted via: CDex 1.51
#
DISCID=950b360b
DTITLE=島崎路子 - フルーレ
DYEAR=1988
DGENRE=Pop
TTITLE0=クロッカス・ヒルで逢いましょう
TTITLE1=ガールフレンド
TTITLE2=悲しみよりもそばにいる
TTITLE3=世界でいちばんちいさな海
TTITLE4=愛をひとりにしないで(Winter Version)
TTITLE5=さざ波のアラベスク
TTITLE6=いつも心に花束を
TTITLE7=グッドラック・チャーム
TTITLE8=いつか見たそよ風
TTITLE9=粉雪感傷
TTITLE10=十二月の窓辺〜Silent My Love〜
EXTD=YEAR: 1988
EXTT0=
EXTT1=
EXTT2=
EXTT3=
EXTT4=
EXTT5=
EXTT6=
EXTT7=
EXTT8=
EXTT9=
EXTT10=
PLAYORDER=
